<svg width="40" height="41" viewBox="0 0 40 41" fill="none" xmlns="http://www.w3.org/2000/svg">
<path fill-rule="evenodd" clip-rule="evenodd" d="M20 20.5C24.9111 20.5 28.8889 16.5222 28.8889 11.6111C28.8889 6.7 24.9111 2.72222 20 2.72222C15.0889 2.72222 11.1111 6.7 11.1111 11.6111C11.1111 16.5222 15.0889 20.5 20 20.5ZM31.1111 11.6111C31.1111 17.75 26.1389 22.7222 20 22.7222C13.8611 22.7222 8.88889 17.75 8.88889 11.6111C8.88889 5.47222 13.8611 0.5 20 0.5C26.1389 0.5 31.1111 5.47222 31.1111 11.6111ZM3.58111 31.8467C2.46667 32.7467 2.22222 33.4211 2.22222 33.8333V38.2778H37.7778V33.8333C37.7778 33.4222 37.5333 32.7456 36.4178 31.8467C35.3289 30.9678 33.7044 30.13 31.7356 29.4056C27.8 27.9578 23.0589 27.1667 20 27.1667C16.9411 27.1667 12.2 27.9578 8.26444 29.4056C6.29556 30.13 4.67111 30.9678 3.58111 31.8467ZM20 24.9444C13.3256 24.9444 0 28.3167 0 33.8333V40.5H40V33.8333C40 28.3167 26.6756 24.9444 20 24.9444Z" fill="white"/>
</svg>
