<svg width="46" height="33" viewBox="0 0 46 33" fill="none" xmlns="http://www.w3.org/2000/svg">
<path d="M18.4989 23.5151L30.272 16.6428L18.4989 9.77049V23.5151ZM44.7218 5.57839C45.0167 6.65505 45.2209 8.09823 45.357 9.93084C45.5158 11.7635 45.5838 13.3441 45.5838 14.7185L45.7199 16.6428C45.7199 21.6596 45.357 25.3477 44.7218 27.7072C44.1547 29.7689 42.839 31.0975 40.7974 31.6702C39.7313 31.968 37.7805 32.1742 34.7861 32.3116C31.8372 32.472 29.1378 32.5407 26.6425 32.5407L23.0357 32.6782C13.5311 32.6782 7.6105 32.3116 5.27403 31.6702C3.23245 31.0975 1.91677 29.7689 1.34967 27.7072C1.05477 26.6305 0.850615 25.1873 0.71451 23.3547C0.55572 21.5221 0.487667 19.9415 0.487667 18.567L0.351562 16.6428C0.351562 11.626 0.714509 7.93787 1.34967 5.57839C1.91677 3.5167 3.23245 2.18805 5.27403 1.61536C6.34019 1.31756 8.29102 1.11139 11.2853 0.973944C14.2343 0.81359 16.9337 0.744868 19.429 0.744868L23.0357 0.607422C32.5404 0.607422 38.461 0.973945 40.7974 1.61536C42.839 2.18805 44.1547 3.5167 44.7218 5.57839Z" fill="white"/>
</svg>
