<svg width="33" height="34" viewBox="0 0 33 34" fill="none" xmlns="http://www.w3.org/2000/svg">
<path fill-rule="evenodd" clip-rule="evenodd" d="M30.3004 0.216797H1.7703C0.792147 0.216797 0 1.02826 0 2.03028V31.2563C0 32.2583 0.792147 33.0697 1.7703 33.0697H17.129V20.3474H12.9502V15.3899H17.129V11.7318C17.129 7.48715 19.6594 5.17759 23.3555 5.17759C25.1258 5.17759 26.646 5.31229 27.0901 5.37307V9.80821H24.5277C22.5169 9.80821 22.1288 10.7872 22.1288 12.2229V15.3883H26.9218L26.2964 20.3458H22.1272V33.0697H30.3004C31.2786 33.0697 32.0707 32.2583 32.0707 31.2563V2.03028C32.0707 1.02826 31.2786 0.216797 30.3004 0.216797Z" fill="white"/>
</svg>
