<svg width="32" height="33" viewBox="0 0 32 33" fill="none" xmlns="http://www.w3.org/2000/svg">
<path d="M17.6448 0.642578C19.4447 0.647378 20.3583 0.656978 21.147 0.679377L21.4574 0.690577C21.8158 0.703377 22.1694 0.719376 22.5966 0.738576C24.2989 0.818574 25.4604 1.08737 26.4796 1.48256C27.5355 1.88895 28.4251 2.43933 29.3146 3.32731C30.1285 4.12687 30.7581 5.09443 31.1593 6.16244C31.5545 7.18162 31.8233 8.34319 31.9033 10.0472C31.9225 10.4727 31.9385 10.8263 31.9513 11.1863L31.9609 11.4967C31.9849 12.2839 31.9945 13.1975 31.9977 14.9974L31.9993 16.191V18.287C32.0032 19.454 31.9909 20.621 31.9625 21.7877L31.9529 22.0981C31.9401 22.458 31.9241 22.8116 31.9049 23.2372C31.8249 24.9412 31.5529 26.1012 31.1593 27.1219C30.7581 28.19 30.1285 29.1575 29.3146 29.9571C28.5151 30.771 27.5476 31.4005 26.4796 31.8018C25.4604 32.197 24.2989 32.4658 22.5966 32.5458L21.4574 32.5938L21.147 32.6034C20.3583 32.6258 19.4447 32.637 17.6448 32.6402L16.4513 32.6418H14.357C13.1895 32.6459 12.0219 32.6337 10.8548 32.605L10.5444 32.5954C10.1646 32.581 9.78485 32.5645 9.40524 32.5458C7.70292 32.4658 6.54138 32.197 5.52063 31.8018C4.45321 31.4003 3.48624 30.7708 2.68717 29.9571C1.87273 29.1577 1.24262 28.1901 0.840868 27.1219C0.445688 26.1028 0.176901 24.9412 0.0969051 23.2372L0.0489076 22.0981L0.0409082 21.7877C0.0114153 20.621 -0.00191877 19.454 0.000910029 18.287V14.9974C-0.00351838 13.8304 0.00821561 12.6634 0.0361084 11.4967L0.0473078 11.1863C0.0601071 10.8263 0.0761063 10.4727 0.0953053 10.0472C0.175301 8.34319 0.444088 7.18322 0.839268 6.16244C1.24196 5.09399 1.87317 4.12639 2.68877 3.32731C3.48738 2.51381 4.45379 1.88427 5.52063 1.48256C6.54138 1.08737 7.70132 0.818574 9.40524 0.738576C9.83081 0.719376 10.186 0.703377 10.5444 0.690577L10.8548 0.680977C12.0214 0.65255 13.1884 0.640283 14.3554 0.644178L17.6448 0.642578ZM16.0001 8.64238C13.8785 8.64238 11.8438 9.48522 10.3435 10.9855C8.84332 12.4857 8.00051 14.5205 8.00051 16.6422C8.00051 18.7639 8.84332 20.7987 10.3435 22.2989C11.8438 23.7992 13.8785 24.642 16.0001 24.642C18.1217 24.642 20.1565 23.7992 21.6567 22.2989C23.1569 20.7987 23.9997 18.7639 23.9997 16.6422C23.9997 14.5205 23.1569 12.4857 21.6567 10.9855C20.1565 9.48522 18.1217 8.64238 16.0001 8.64238ZM16.0001 11.8423C16.6304 11.8422 17.2546 11.9663 17.837 12.2074C18.4193 12.4485 18.9485 12.802 19.3943 13.2476C19.8401 13.6932 20.1937 14.2223 20.435 14.8046C20.6763 15.3869 20.8006 16.0111 20.8007 16.6414C20.8008 17.2717 20.6767 17.8959 20.4356 18.4783C20.1945 19.0607 19.841 19.5899 19.3954 20.0357C18.9498 20.4814 18.4207 20.8351 17.8384 21.0764C17.2561 21.3177 16.632 21.442 16.0017 21.4421C14.7287 21.4421 13.5079 20.9364 12.6078 20.0362C11.7076 19.1361 11.2019 17.9152 11.2019 16.6422C11.2019 15.3692 11.7076 14.1483 12.6078 13.2482C13.5079 12.348 14.7287 11.8423 16.0017 11.8423M24.4013 6.24244C23.8709 6.24244 23.3622 6.45315 22.9871 6.82821C22.6121 7.20328 22.4014 7.71197 22.4014 8.24239C22.4014 8.77281 22.6121 9.28151 22.9871 9.65657C23.3622 10.0316 23.8709 10.2423 24.4013 10.2423C24.9317 10.2423 25.4404 10.0316 25.8154 9.65657C26.1905 9.28151 26.4012 8.77281 26.4012 8.24239C26.4012 7.71197 26.1905 7.20328 25.8154 6.82821C25.4404 6.45315 24.9317 6.24244 24.4013 6.24244Z" fill="white"/>
</svg>
