<svg width="31" height="41" viewBox="0 0 31 41" fill="none" xmlns="http://www.w3.org/2000/svg">
<path d="M0 40.4275V9.42746H7.75V8.32031C7.75 6.16803 8.50359 4.33829 10.0108 2.8311C11.518 1.32391 13.3477 0.570312 15.5 0.570312C17.6523 0.570312 19.482 1.32391 20.9892 2.8311C22.4964 4.33829 23.25 6.16803 23.25 8.32031V9.42746H31V40.4275H0ZM2.21429 38.2132H28.7857V11.6417H23.25V18.2846H21.0357V11.6417H9.96428V18.2846H7.75V11.6417H2.21429V38.2132ZM9.96428 9.42746H21.0357V8.32031C21.0357 6.76146 20.5028 5.44912 19.437 4.38331C18.3712 3.3175 17.0589 2.7846 15.5 2.7846C13.9411 2.7846 12.6288 3.3175 11.563 4.38331C10.4972 5.44912 9.96428 6.76146 9.96428 8.32031V9.42746Z" fill="white"/>
</svg>
