<svg width="31" height="40" viewBox="0 0 31 40" fill="none" xmlns="http://www.w3.org/2000/svg">
<path d="M0 39.9275V8.92746H7.75V7.82031C7.75 5.66803 8.50359 3.83829 10.0108 2.3311C11.518 0.823908 13.3477 0.0703125 15.5 0.0703125C17.6523 0.0703125 19.482 0.823908 20.9892 2.3311C22.4964 3.83829 23.25 5.66803 23.25 7.82031V8.92746H31V39.9275H0ZM2.21429 37.7132H28.7857V11.1417H23.25V17.7846H21.0357V11.1417H9.96429V17.7846H7.75V11.1417H2.21429V37.7132ZM9.96429 8.92746H21.0357V7.82031C21.0357 6.26146 20.5028 4.94912 19.437 3.88331C18.3712 2.8175 17.0589 2.2846 15.5 2.2846C13.9411 2.2846 12.6288 2.8175 11.563 3.88331C10.4972 4.94912 9.96429 6.26146 9.96429 7.82031V8.92746Z" fill="black"/>
</svg>
